<svg xmlns="http://www.w3.org/2000/svg" width="1619" height="340.535" viewBox="0 0 1619 340.535">
  <g id="Group_433" data-name="Group 433" transform="translate(-123 -67.719)">
    <rect id="Rectangle_43" data-name="Rectangle 43" width="179" height="69" transform="translate(842 281)" fill="#ffbeae"/>
    <g id="Group_105" data-name="Group 105" transform="translate(-1451.68 -10.277)">
      <rect id="Rectangle_57" data-name="Rectangle 57" width="22.466" height="22.466" transform="translate(1590.566 302.505) rotate(45)" fill="#c1c1c1"/>
      <g id="Rectangle_56" data-name="Rectangle 56" transform="translate(1590.566 292.36) rotate(45)" fill="none" stroke="#050501" stroke-width="4">
        <rect width="22.466" height="22.466" stroke="none"/>
        <rect x="2" y="2" width="18.466" height="18.466" fill="none"/>
      </g>
    </g>
    <path id="Path_11" data-name="Path 11" d="M3043,544s75,5.893,67.667-63.44-2-103.333,64.667-94c93.333,20.667,12.667,153.333,0,62.667s76.333,19.333,143.333-26.667,4-132,4-132" transform="translate(-1580.249 -1197.423) rotate(19)" fill="none" stroke="#e45330" stroke-width="1"/>
    <rect id="Rectangle_54" data-name="Rectangle 54" width="40" height="35" transform="translate(1630 322)" fill="#ffbeae"/>
    <rect id="Rectangle_55" data-name="Rectangle 55" width="23" height="20" transform="translate(1719 305)" fill="#333232"/>
    <g id="Group_106" data-name="Group 106" transform="translate(68.548 -101.5)">
      <rect id="Rectangle_57-2" data-name="Rectangle 57" width="37.861" height="37.861" transform="translate(1601.452 309.457) rotate(45)" fill="#c1c1c1"/>
      <g id="Rectangle_56-2" data-name="Rectangle 56" transform="translate(1601.452 292.36) rotate(45)" fill="none" stroke="#050501" stroke-width="4">
        <rect width="37.861" height="37.861" stroke="none"/>
        <rect x="2" y="2" width="33.861" height="33.861" fill="none"/>
      </g>
    </g>
    <g id="Group_417" data-name="Group 417" transform="translate(-479.68 -12.277)">
      <rect id="Rectangle_57-3" data-name="Rectangle 57" width="22.466" height="22.466" transform="translate(1590.566 302.505) rotate(45)" fill="#c1c1c1"/>
      <g id="Rectangle_56-3" data-name="Rectangle 56" transform="translate(1590.566 292.36) rotate(45)" fill="none" stroke="#050501" stroke-width="4">
        <rect width="22.466" height="22.466" stroke="none"/>
        <rect x="2" y="2" width="18.466" height="18.466" fill="none"/>
      </g>
    </g>
  </g>
</svg>
