<svg xmlns="http://www.w3.org/2000/svg" width="1584.772" height="166.14" viewBox="0 0 1584.772 166.14">
  <g id="Group_435" data-name="Group 435" transform="translate(-157.228 -190.86)">
    <rect id="Rectangle_43" data-name="Rectangle 43" width="179" height="69" transform="translate(1059 222)" fill="#ffbeae"/>
    <g id="Group_105" data-name="Group 105" transform="translate(-845.68 -99.277)">
      <rect id="Rectangle_57" data-name="Rectangle 57" width="22.466" height="22.466" transform="translate(1590.566 302.505) rotate(45)" fill="#c1c1c1"/>
      <g id="Rectangle_56" data-name="Rectangle 56" transform="translate(1590.566 292.36) rotate(45)" fill="none" stroke="#050501" stroke-width="4">
        <rect width="22.466" height="22.466" stroke="none"/>
        <rect x="2" y="2" width="18.466" height="18.466" fill="none"/>
      </g>
    </g>
    <rect id="Rectangle_54" data-name="Rectangle 54" width="40" height="35" transform="translate(1630 322)" fill="#ffbeae"/>
    <rect id="Rectangle_55" data-name="Rectangle 55" width="23" height="20" transform="translate(1719 305)" fill="#333232"/>
    <g id="Group_106" data-name="Group 106" transform="translate(68.548 -101.5)">
      <rect id="Rectangle_57-2" data-name="Rectangle 57" width="37.861" height="37.861" transform="translate(1601.452 309.457) rotate(45)" fill="#c1c1c1"/>
      <g id="Rectangle_56-2" data-name="Rectangle 56" transform="translate(1601.452 292.36) rotate(45)" fill="none" stroke="#050501" stroke-width="4">
        <rect width="37.861" height="37.861" stroke="none"/>
        <rect x="2" y="2" width="33.861" height="33.861" fill="none"/>
      </g>
    </g>
    <g id="Group_420" data-name="Group 420" transform="translate(-1417.452 -41)">
      <rect id="Rectangle_57-3" data-name="Rectangle 57" width="37.861" height="37.861" transform="translate(1601.452 309.457) rotate(45)" fill="#c1c1c1"/>
      <g id="Rectangle_56-3" data-name="Rectangle 56" transform="translate(1601.452 292.36) rotate(45)" fill="none" stroke="#050501" stroke-width="4">
        <rect width="37.861" height="37.861" stroke="none"/>
        <rect x="2" y="2" width="33.861" height="33.861" fill="none"/>
      </g>
    </g>
  </g>
</svg>
