<svg xmlns="http://www.w3.org/2000/svg" width="1321.772" height="340.535" viewBox="0 0 1321.772 340.535">
  <g id="Group_436" data-name="Group 436" transform="translate(-239 -55.437)">
    <g id="Group_105" data-name="Group 105" transform="translate(-907.68 -99.277)">
      <rect id="Rectangle_57" data-name="Rectangle 57" width="22.466" height="22.466" transform="translate(1590.566 302.505) rotate(45)" fill="#c1c1c1"/>
      <g id="Rectangle_56" data-name="Rectangle 56" transform="translate(1590.566 292.36) rotate(45)" fill="none" stroke="#050501" stroke-width="4">
        <rect width="22.466" height="22.466" stroke="none"/>
        <rect x="2" y="2" width="18.466" height="18.466" fill="none"/>
      </g>
    </g>
    <path id="Path_73" data-name="Path 73" d="M3043,544s75,5.893,67.667-63.44-2-103.333,64.667-94c93.333,20.667,12.667,153.333,0,62.667s76.333,19.333,143.333-26.667,4-132,4-132" transform="translate(-1556.249 -1209.705) rotate(19)" fill="none" stroke="#e45330" stroke-width="1"/>
    <rect id="Rectangle_43" data-name="Rectangle 43" width="179" height="69" transform="translate(1029 230)" fill="#ffbeae"/>
    <g id="Group_421" data-name="Group 421" transform="translate(-1014.452 -35.86)">
      <rect id="Rectangle_57-2" data-name="Rectangle 57" width="37.861" height="37.861" transform="translate(1601.452 309.457) rotate(45)" fill="#c1c1c1"/>
      <g id="Rectangle_56-2" data-name="Rectangle 56" transform="translate(1601.452 292.36) rotate(45)" fill="none" stroke="#050501" stroke-width="4">
        <rect width="37.861" height="37.861" stroke="none"/>
        <rect x="2" y="2" width="33.861" height="33.861" fill="none"/>
      </g>
    </g>
    <rect id="Rectangle_131" data-name="Rectangle 131" width="23" height="20" transform="translate(1476 142)" fill="#333232"/>
    <g id="Group_105-2" data-name="Group 105" transform="translate(-45.68 -77.777)">
      <rect id="Rectangle_57-3" data-name="Rectangle 57" width="22.466" height="22.466" transform="translate(1590.566 302.505) rotate(45)" fill="#c1c1c1"/>
      <g id="Rectangle_56-3" data-name="Rectangle 56" transform="translate(1590.566 292.36) rotate(45)" fill="none" stroke="#050501" stroke-width="4">
        <rect width="22.466" height="22.466" stroke="none"/>
        <rect x="2" y="2" width="18.466" height="18.466" fill="none"/>
      </g>
    </g>
    <rect id="Rectangle_132" data-name="Rectangle 132" width="40" height="35" transform="translate(239 255)" fill="#ffbeae"/>
  </g>
</svg>
