<svg xmlns="http://www.w3.org/2000/svg" width="70" height="71" fill="none"><path fill="#48639E" stroke="#48639E" stroke-width=".6" d="M68 65.254v-.794H53.3V46.373H68v-.794H53.3v-7.325a3.116 3.116 0 0 0-.77-2.034 3.1 3.1 0 0 0-1.913-1.03v-1.349h-.791v1.35a3.1 3.1 0 0 0-1.912 1.03 3.116 3.116 0 0 0-.772 2.033v2.81H42.22v-5.755h-3.087a4.288 4.288 0 0 0-1.887-4.972 4.258 4.258 0 0 0-1.802-.583V28h-.791v1.762a4.258 4.258 0 0 0-3.174 1.89 4.284 4.284 0 0 0-.515 3.666h-3.166v5.753h-4.932v-2.817a3.124 3.124 0 0 0-.773-2.032 3.108 3.108 0 0 0-1.91-1.032v-1.349h-.791v1.35a3.1 3.1 0 0 0-1.907 1.031 3.116 3.116 0 0 0-.769 2.032v7.31H2v.793h14.7v18.087H2v.794h14.7v3.968H2V70h66v-.73H53.3v-3.968l14.7-.048ZM17.586 37.659a2.286 2.286 0 0 1 2.196-1.674 2.276 2.276 0 0 1 2.197 1.674h-4.393Zm-.08 3.404v-2.595h4.552v2.595h-4.551Zm0 23.381V41.873h4.552v22.571h-4.551Zm5.36-15.206v-7.365h4.939v7.365h-4.94Zm0 5.127v-4.317h4.939v4.317h-4.94Zm0 6.262v-5.452h4.939v5.452h-4.94Zm9.19-14.222v-4.532h5.897v4.532h-5.898Zm0 5.127v-4.318h5.897v4.318h-5.898Zm5.897.793v8.302h-5.898v-8.286l5.898-.016Zm-2.55-14.889V36.12h2.55v4.944h-5.898V36.12h2.55v1.318h.799Zm-6.79 3.627V36.12h2.635v4.944h-2.636Zm3.165-5.754a3.325 3.325 0 0 1-.245-1.27 3.5 3.5 0 0 1 1.26-2.686 3.479 3.479 0 0 1 5.698 2.453 3.5 3.5 0 0 1-.23 1.504h-6.483Zm9.65 6.564v18.754H38.76V41.873h2.667Zm-2.636-.794v-4.96h2.635v4.944l-2.635.016Zm-10.18 19.548V41.873h2.636v18.754h-2.636ZM42.22 49.238v-7.365h4.931v7.365H42.22Zm0 5.127v-4.317h4.931v4.317H42.22Zm0 6.262v-5.46h4.931v5.46H42.22Zm-19.354 3.817v-3.008h24.27v3.008h-24.27ZM48.021 37.66a2.286 2.286 0 0 1 2.2-1.689 2.276 2.276 0 0 1 2.201 1.689h-4.4Zm-.079 3.404v-2.595h4.567v2.595h-4.567Zm0 23.381V41.873h4.567v22.571h-4.567ZM17.507 69.27v-3.968h35.002v3.968H17.507Z"/><path fill="#24A7D0" d="M13.976 52.016a.698.698 0 1 0-.001-1.395.698.698 0 0 0 .001 1.395ZM4.003 52.016A.697.697 0 1 0 4 50.621a.697.697 0 0 0 .002 1.395ZM8.99 52.016a.698.698 0 1 0-.002-1.395.698.698 0 0 0 .002 1.395ZM13.976 56.127a.698.698 0 1 0-.001-1.395.698.698 0 0 0 .001 1.395ZM4.003 56.127A.697.697 0 1 0 4 54.732a.697.697 0 0 0 .002 1.395ZM8.99 56.127a.698.698 0 1 0-.002-1.395.698.698 0 0 0 .002 1.395ZM13.976 60.23a.698.698 0 1 0-.001-1.395.698.698 0 0 0 .001 1.395ZM4.003 60.23A.697.697 0 1 0 4 58.835a.697.697 0 0 0 .002 1.395ZM8.99 60.23a.698.698 0 1 0-.002-1.395.698.698 0 0 0 .002 1.395ZM66.33 52.016a.698.698 0 1 0-.002-1.395.698.698 0 0 0 .002 1.395ZM56.356 52.016a.697.697 0 1 0-.001-1.395.697.697 0 0 0 .001 1.395ZM61.343 52.016a.698.698 0 1 0-.002-1.395.698.698 0 0 0 .002 1.395ZM66.33 56.127a.698.698 0 1 0-.002-1.395.698.698 0 0 0 .002 1.395ZM56.356 56.127a.697.697 0 1 0-.001-1.395.697.697 0 0 0 .001 1.395ZM61.343 56.127a.698.698 0 1 0-.002-1.395.698.698 0 0 0 .002 1.395ZM66.33 60.23a.698.698 0 1 0-.002-1.395.698.698 0 0 0 .002 1.395ZM56.356 60.23a.697.697 0 1 0-.001-1.395.697.697 0 0 0 .001 1.395ZM61.343 60.23a.698.698 0 1 0-.002-1.395.698.698 0 0 0 .002 1.395Z"/><path stroke="#24A7D0" stroke-width=".6" d="M13.976 52.016a.698.698 0 1 0-.001-1.395.698.698 0 0 0 .001 1.395ZM4.003 52.016A.697.697 0 1 0 4 50.621a.697.697 0 0 0 .002 1.395ZM8.99 52.016a.698.698 0 1 0-.002-1.395.698.698 0 0 0 .002 1.395ZM13.976 56.127a.698.698 0 1 0-.001-1.395.698.698 0 0 0 .001 1.395ZM4.003 56.127A.697.697 0 1 0 4 54.732a.697.697 0 0 0 .002 1.395ZM8.99 56.127a.698.698 0 1 0-.002-1.395.698.698 0 0 0 .002 1.395ZM13.976 60.23a.698.698 0 1 0-.001-1.395.698.698 0 0 0 .001 1.395ZM4.003 60.23A.697.697 0 1 0 4 58.835a.697.697 0 0 0 .002 1.395ZM8.99 60.23a.698.698 0 1 0-.002-1.395.698.698 0 0 0 .002 1.395ZM66.33 52.016a.698.698 0 1 0-.002-1.395.698.698 0 0 0 .002 1.395ZM56.356 52.016a.697.697 0 1 0-.001-1.395.697.697 0 0 0 .001 1.395ZM61.343 52.016a.698.698 0 1 0-.002-1.395.698.698 0 0 0 .002 1.395ZM66.33 56.127a.698.698 0 1 0-.002-1.395.698.698 0 0 0 .002 1.395ZM56.356 56.127a.697.697 0 1 0-.001-1.395.697.697 0 0 0 .001 1.395ZM61.343 56.127a.698.698 0 1 0-.002-1.395.698.698 0 0 0 .002 1.395ZM66.33 60.23a.698.698 0 1 0-.002-1.395.698.698 0 0 0 .002 1.395ZM56.356 60.23a.697.697 0 1 0-.001-1.395.697.697 0 0 0 .001 1.395ZM61.343 60.23a.698.698 0 1 0-.002-1.395.698.698 0 0 0 .002 1.395Z"/></svg>