<svg width="709" height="151" viewBox="0 0 709 151" fill="none" xmlns="http://www.w3.org/2000/svg">
<path d="M0.499756 135.5C187.5 -31 486 -53 700.5 124" stroke="url(#paint0_linear_541_22503)" stroke-dasharray="2 2"/>
<path d="M664.641 101.889L675.563 101.238C676.015 101.211 676.457 101.378 676.778 101.697L699.19 123.929C699.51 124.247 699.68 124.685 699.658 125.136L699.506 128.282C699.444 129.553 697.988 130.24 696.967 129.48L663.785 104.752C662.596 103.866 663.16 101.978 664.641 101.889Z" fill="#7A77A7"/>
<path d="M707.463 136.4L686.108 91.6726C685.862 91.1575 685.17 91.0616 684.793 91.4906L676.721 100.685C676.463 100.979 676.457 101.417 676.708 101.718L697.982 127.3L674.054 104.551C673.755 104.266 673.289 104.258 672.98 104.531L664.245 112.25C663.836 112.611 663.904 113.267 664.378 113.537L706.352 137.433C707.029 137.818 707.799 137.102 707.463 136.4Z" fill="#050038"/>
<path fill-rule="evenodd" clip-rule="evenodd" d="M684.196 90.966C684.949 90.108 686.334 90.2997 686.826 91.33L708.181 136.057C708.852 137.462 707.312 138.895 705.959 138.124L663.985 114.228L664.378 113.537L663.985 114.228C663.037 113.688 662.901 112.376 663.718 111.654L672.453 103.935C673.071 103.389 674.004 103.406 674.602 103.974L688.682 117.361L676.096 102.227C675.596 101.625 675.608 100.749 676.124 100.161L684.196 90.966ZM706.745 136.742L685.391 92.0152L677.319 101.21L698.593 126.791L697.434 127.876L673.506 105.127L664.772 112.846L706.745 136.742Z" fill="#7A77A7"/>
<defs>
<linearGradient id="paint0_linear_541_22503" x1="343.001" y1="70.9998" x2="343.001" y2="-18.9307" gradientUnits="userSpaceOnUse">
<stop stop-color="#7A77A7"/>
<stop offset="1" stop-color="#7A77A7" stop-opacity="0.24"/>
</linearGradient>
</defs>
</svg>
