<svg xmlns="http://www.w3.org/2000/svg" width="70" height="71" fill="none"><path fill="#4FB8DD" d="m32.209 51.425.688.589 1.712-1.939 1.72 1.984.68-.589-2.4-2.762zM31.665 47.91l.68.599 2.282-2.627 2.282 2.627.68-.598-2.962-3.414z"/><path fill="#4FB8DD" d="m34.563 41.816 2.717 3.08.68-.59-3.397-3.876-3.36 3.876.688.59z"/><path stroke="#4FB8DD" stroke-width=".6" d="m32.209 51.425.688.589 1.712-1.939 1.72 1.984.68-.589-2.4-2.762zM31.665 47.91l.68.599 2.282-2.627 2.282 2.627.68-.598-2.962-3.414z"/><path stroke="#4FB8DD" stroke-width=".6" d="m34.563 41.816 2.717 3.08.68-.59-3.397-3.876-3.36 3.876.688.59z"/><path fill="#48639E" fill-rule="evenodd" d="M34.11 22.308c0-.181.18-.308.452-.308s.462.127.462.308v3.624c5.064.024 7.626.45 7.626 1.285q-.001.438-.938.728a3.7 3.7 0 0 1 .719 1.33q.62-.155 1.233-.338l.589-.172V70H24.88V28.765l.588.172q.614.182 1.232.338a3.7 3.7 0 0 1 .723-1.333q-.94-.291-.94-.725c0-.827 2.564-1.261 7.625-1.285zm7.444 8.857c.08-.25.122-.51.129-.77a33 33 0 0 1-1.62.312q.002.035-.003.069l-4.996 38.318h8.274v-3.74H38.71v-.915h4.628v-1.657h-3.912v-.915h3.912v-1.666h-3.287v-.915h3.287v-1.657h-2.672v-.915h2.672V29.988q-.377.103-.755.197c.016.396-.03.794-.142 1.18a.45.45 0 0 1-.443.353h-.109a.45.45 0 0 1-.335-.553m-.004-1.688.002.008a32.1 32.1 0 0 1-13.979-.002l.003-.01c.168-.512.485-.963.909-1.294q2.027.331 6.077.333c2.712 0 4.75-.111 6.101-.333.414.338.722.788.887 1.298m-15.002.707c-.017.402.03.807.144 1.199a.434.434 0 0 0 .444.344h.108a.454.454 0 0 0 .335-.553 2.7 2.7 0 0 1-.137-.781q.81.177 1.627.313a1 1 0 0 0 .005.07l5.023 38.318h-8.301v-3.74h4.628v-.915h-4.628v-1.657h3.903v-.915h-3.904v-1.666h3.288v-.915h-3.287v-1.657h2.662v-.915h-2.662V29.988q.374.103.752.196m14.354-2.967c-2.102.28-4.22.406-6.34.38-2.12.027-4.238-.1-6.34-.38a42.6 42.6 0 0 1 6.34-.372c2.12-.034 4.239.09 6.34.372m-10.897 3.632 4.557 34.75 4.567-34.75a33.3 33.3 0 0 1-9.124 0" clip-rule="evenodd"/><path fill="#48639E" d="M54.134 69.112H15V70h39.134z"/><path stroke="#48639E" stroke-width=".6" d="M34.11 22.308c0-.181.18-.308.452-.308s.462.127.462.308v3.624c5.064.024 7.626.45 7.626 1.285q-.001.438-.938.728a3.7 3.7 0 0 1 .719 1.33q.62-.155 1.233-.338l.589-.172V70H24.88V28.765l.588.172q.614.182 1.232.338a3.7 3.7 0 0 1 .723-1.333q-.94-.291-.94-.725c0-.827 2.564-1.261 7.625-1.285zm7.444 8.857c.08-.25.122-.51.129-.77a33 33 0 0 1-1.62.312q.002.035-.003.069l-4.996 38.318h8.274v-3.74H38.71v-.915h4.628v-1.657h-3.912v-.915h3.912v-1.666h-3.287v-.915h3.287v-1.657h-2.672v-.915h2.672V29.988q-.377.103-.755.197c.016.396-.03.794-.142 1.18a.45.45 0 0 1-.443.353h-.109a.45.45 0 0 1-.335-.553Zm-.004-1.688.002.008a32.1 32.1 0 0 1-13.979-.002l.003-.01c.168-.512.485-.963.909-1.294q2.027.331 6.077.333c2.712 0 4.75-.111 6.101-.333.414.338.722.788.887 1.298Zm-15.002.707c-.017.402.03.807.144 1.199a.434.434 0 0 0 .444.344h.108a.454.454 0 0 0 .335-.553 2.7 2.7 0 0 1-.137-.781q.81.177 1.627.313a1 1 0 0 0 .005.07l5.023 38.318h-8.301v-3.74h4.628v-.915h-4.628v-1.657h3.903v-.915h-3.904v-1.666h3.288v-.915h-3.287v-1.657h2.662v-.915h-2.662V29.988q.374.103.752.196Zm14.354-2.967c-2.102.28-4.22.406-6.34.38-2.12.027-4.238-.1-6.34-.38a42.6 42.6 0 0 1 6.34-.372c2.12-.034 4.239.09 6.34.372Zm-10.897 3.632 4.557 34.75 4.567-34.75a33.3 33.3 0 0 1-9.124 0Z" clip-rule="evenodd"/><path stroke="#48639E" stroke-width=".6" d="M54.134 69.112H15V70h39.134z"/></svg>