<svg xmlns="http://www.w3.org/2000/svg" width="72" height="71" fill="none"><path fill="#48639E" stroke="#48639E" stroke-width=".6" d="M69.153 47.718c-.004-.934-.291-1.834-.81-2.532-.517-.7-1.229-1.15-2.004-1.267v-4.926h-.785v4.926c-.782.108-1.504.554-2.03 1.253-.526.7-.82 1.605-.827 2.546v8.742H60.89c-.14-1.227-.647-2.352-1.428-3.167s-1.782-1.264-2.818-1.264-2.037.45-2.818 1.264c-.78.815-1.288 1.94-1.428 3.167h-2.135V48h-5.214V37.61c0-4.27-3.764-7.83-8.413-8V25h-.786v4.61c-4.656.17-8.413 3.73-8.413 8V48h-5.213v8.468H20.08c-.145-1.22-.655-2.338-1.434-3.146-.78-.808-1.776-1.253-2.808-1.253s-2.029.445-2.808 1.253c-.78.808-1.289 1.925-1.434 3.146h-1.85v-8.75c-.007-.941-.301-1.846-.827-2.546s-1.248-1.145-2.03-1.253v-4.926h-.786v4.926c-.767.129-1.47.584-1.98 1.281-.51.698-.793 1.591-.798 2.518V69.06H1V70h70v-.94h-1.84zm-5.628-.145c0-.768.256-1.504.71-2.047s1.07-.848 1.712-.848 1.257.305 1.712.848c.454.543.709 1.279.709 2.047zm4.843.939v20.532h-4.842V48.512zM49.463 62.846v6.198h-4.428v-6.198zm0-5.404v4.507h-4.428v-4.507zm0-8.538v7.522h-4.428v-7.522zm3.678 7.522c.102-1.012.51-1.943 1.148-2.62.637-.675 1.46-1.048 2.312-1.048.853 0 1.675.373 2.313 1.049.637.676 1.046 1.607 1.148 2.619zm9.592 1.016v11.602h-12.47V57.442zm-29.925-.555c0-1.189.395-2.329 1.098-3.17s1.657-1.312 2.652-1.312c.994 0 1.948.472 2.65 1.312.704.841 1.1 1.981 1.1 3.17v12.157h-7.5zm3.75-5.421c-1.202.004-2.353.577-3.203 1.592s-1.329 2.392-1.332 3.829v12.157h-3.8v-20.14h16.04v20.14h-3.17v-12.2c-.013-1.429-.497-2.794-1.345-3.8-.849-1.007-1.995-1.574-3.19-1.578Zm7.706-7.906v4.482H28.223v-4.525zm0-5.916v4.977H28.223V37.6c0-3.893 3.57-7.06 7.977-7.06h.079c4.4 0 7.985 3.167 7.985 7.06zM27.437 62.846v6.198h-4.4v-6.198zm0-5.447v4.508h-4.4v-4.465zm0-8.46v7.52h-4.4v-7.555zm-14.998 7.52c.102-1.01.51-1.942 1.148-2.618s1.46-1.05 2.313-1.05c.852 0 1.674.374 2.312 1.05s1.046 1.608 1.148 2.619zm9.778.983v11.602H9.747V57.442zM8.96 47.572H4.12c0-.767.255-1.503.71-2.046.453-.543 1.069-.848 1.711-.848s1.258.305 1.712.848.71 1.279.71 2.047Zm0 .94v20.532H4.12V48.512z"/><path fill="#24A7D0" d="M18.146 60.472c-.238 0-.47.085-.667.242a1.4 1.4 0 0 0-.442.644c-.09.262-.114.55-.068.829s.16.533.328.734.382.337.614.392c.233.056.474.027.694-.081.219-.109.406-.293.538-.529a1.64 1.64 0 0 0 .202-.796 1.6 1.6 0 0 0-.353-1.012 1.12 1.12 0 0 0-.846-.423m.607 1.435a.8.8 0 0 1-.096.39.63.63 0 0 1-.26.263.5.5 0 0 1-.34.043.56.56 0 0 1-.301-.19.75.75 0 0 1-.163-.358.8.8 0 0 1 .032-.406.7.7 0 0 1 .216-.315.52.52 0 0 1 .326-.119c.154 0 .302.073.412.202.11.13.172.305.174.49M13.818 60.472a1.06 1.06 0 0 0-.669.238c-.198.157-.353.38-.445.642s-.117.55-.071.83c.045.278.159.534.326.736.168.201.382.339.615.395s.474.028.694-.08c.22-.109.407-.292.54-.529a1.64 1.64 0 0 0 .202-.797 1.6 1.6 0 0 0-.35-1.009 1.12 1.12 0 0 0-.842-.426m.578 1.435c0 .184-.06.36-.169.492a.54.54 0 0 1-.41.208.54.54 0 0 1-.414-.205.78.78 0 0 1-.171-.495.77.77 0 0 1 .174-.49.54.54 0 0 1 .412-.202c.153 0 .3.073.409.203s.169.305.169.489M58.783 60.472c-.237 0-.47.085-.667.242a1.4 1.4 0 0 0-.441.644c-.091.262-.115.55-.069.829.047.278.16.533.329.734.167.2.381.337.614.392.233.056.474.027.693-.081.22-.109.407-.293.539-.529a1.64 1.64 0 0 0 .202-.796 1.6 1.6 0 0 0-.354-1.012 1.12 1.12 0 0 0-.846-.423m.578 1.435c0 .184-.06.36-.168.492a.54.54 0 0 1-.41.208.55.55 0 0 1-.412-.208.784.784 0 0 1 0-.982.54.54 0 0 1 .412-.202c.153 0 .3.073.409.203s.17.305.17.489M54.462 60.472a1.06 1.06 0 0 0-.668.238c-.199.157-.354.38-.445.642s-.117.55-.072.83c.046.278.16.534.327.736.168.201.381.339.614.395s.475.028.694-.08c.22-.109.408-.292.54-.529a1.64 1.64 0 0 0 .203-.797 1.6 1.6 0 0 0-.351-1.009 1.12 1.12 0 0 0-.842-.426m.579 1.435c0 .184-.061.36-.17.492a.54.54 0 0 1-.409.208.54.54 0 0 1-.414-.205.78.78 0 0 1-.172-.495.77.77 0 0 1 .175-.49.54.54 0 0 1 .411-.202c.154 0 .3.073.41.203.108.13.169.305.169.489"/><path stroke="#24A7D0" stroke-width=".6" d="M18.146 60.472c-.238 0-.47.085-.667.242a1.4 1.4 0 0 0-.442.644c-.09.262-.114.55-.068.829s.16.533.328.734.382.337.614.392c.233.056.474.027.694-.081.219-.109.406-.293.538-.529a1.64 1.64 0 0 0 .202-.796 1.6 1.6 0 0 0-.353-1.012 1.12 1.12 0 0 0-.846-.423Zm.607 1.435a.8.8 0 0 1-.096.39.63.63 0 0 1-.26.263.5.5 0 0 1-.34.043.56.56 0 0 1-.301-.19.75.75 0 0 1-.163-.358.8.8 0 0 1 .032-.406.7.7 0 0 1 .216-.315.52.52 0 0 1 .326-.119c.154 0 .302.073.412.202.11.13.172.305.174.49ZM13.818 60.472a1.06 1.06 0 0 0-.669.238c-.198.157-.353.38-.445.642s-.117.55-.071.83c.045.278.159.534.326.736.168.201.382.339.615.395s.474.028.694-.08c.22-.109.407-.292.54-.529a1.64 1.64 0 0 0 .202-.797 1.6 1.6 0 0 0-.35-1.009 1.12 1.12 0 0 0-.842-.426Zm.578 1.435c0 .184-.06.36-.169.492a.54.54 0 0 1-.41.208.54.54 0 0 1-.414-.205.78.78 0 0 1-.171-.495.77.77 0 0 1 .174-.49.54.54 0 0 1 .412-.202c.153 0 .3.073.409.203s.169.305.169.489ZM58.783 60.472c-.237 0-.47.085-.667.242a1.4 1.4 0 0 0-.441.644c-.091.262-.115.55-.069.829.047.278.16.533.329.734.167.2.381.337.614.392.233.056.474.027.693-.081.22-.109.407-.293.539-.529a1.64 1.64 0 0 0 .202-.796 1.6 1.6 0 0 0-.354-1.012 1.12 1.12 0 0 0-.846-.423Zm.578 1.435c0 .184-.06.36-.168.492a.54.54 0 0 1-.41.208.55.55 0 0 1-.412-.208.784.784 0 0 1 0-.982.54.54 0 0 1 .412-.202c.153 0 .3.073.409.203s.17.305.17.489ZM54.462 60.472a1.06 1.06 0 0 0-.668.238c-.199.157-.354.38-.445.642s-.117.55-.072.83c.046.278.16.534.327.736.168.201.381.339.614.395s.475.028.694-.08c.22-.109.408-.292.54-.529a1.64 1.64 0 0 0 .203-.797 1.6 1.6 0 0 0-.351-1.009 1.12 1.12 0 0 0-.842-.426Zm.579 1.435c0 .184-.061.36-.17.492a.54.54 0 0 1-.409.208.54.54 0 0 1-.414-.205.78.78 0 0 1-.172-.495.77.77 0 0 1 .175-.49.54.54 0 0 1 .411-.202c.154 0 .3.073.41.203.108.13.169.305.169.489Z"/></svg>