<svg xmlns="http://www.w3.org/2000/svg" width="70" height="71" fill="none"><path fill="#48639E" stroke="#48639E" stroke-width=".6" d="M52.694 69.19v-4.787h10.489v-.711H52.694v-5.245h10.489v-.749H52.694v-5.32h10.489v-.71H52.694v-14.19h-.749v10.735a29.74 29.74 0 0 0-13.83-13.11v-3.484c0-.12-.817-2.937-2.6-3.619h-.105c-1.783.682-2.562 3.499-2.6 3.619v3.483a29.73 29.73 0 0 0-13.875 13.111V37.477h-.711v14.19H7.734v.712h10.49v5.38H7.734v.748h10.49v5.245H7.734v.711h10.49v4.788H3V70h64.896v-.75zM33.62 31.365c.24-.667.861-2.098 1.828-2.63.966.525 1.58 1.963 1.828 2.63zm8.293 31.047a2.46 2.46 0 0 1 2.09-2.368v9.148h-2.09zm-6.465-1.933a2.93 2.93 0 0 1 1.498 2.06v6.66H33.95v-6.645a2.94 2.94 0 0 1 1.499-2.083zm.097-.794h-.195l-.135-.045-.052.18a3.62 3.62 0 0 0-1.94 2.66v6.742H29.7v-6.81c0-2.248-2.015-2.922-2.802-3.102v-7.222q.331-.735.75-1.424h15.635q.413.692.75 1.424v7.222c-.817.18-2.825.854-2.825 3.102v6.742h-3.521v-6.742a3.6 3.6 0 0 0-1.94-2.638l-.053-.18zm-8.653.36a2.464 2.464 0 0 1 2.09 2.367v6.742h-2.09zm-4.54-7.912v1.393h-3.439V50.2l3.574.442a6 6 0 0 0-.135 1.498zm-3.282-2.63a26 26 0 0 1 2.248-3.828l2.472 1.723c-.474.8-.846 1.655-1.109 2.547zm2.66-4.413a30 30 0 0 1 2.203-2.674l2.105 2.067a16.3 16.3 0 0 0-1.873 2.3zm8.039-3.656-2.315-2.248q1.471-1.142 3.079-2.082l1.798 2.832q-1.371.732-2.562 1.498Zm8.795-1.498 1.798-2.84a28.5 28.5 0 0 1 3.095 2.09l-2.315 2.248a27 27 0 0 0-2.563-1.498zm3.162 1.925 2.248-2.247a30 30 0 0 1 2.487 2.292l-2.09 2.075a22 22 0 0 0-2.645-2.142zm-13.673 8.092a14.38 14.38 0 0 1 7.395-5.994 14.38 14.38 0 0 1 7.394 6.03zm7.395-6.788-.225-.075-.053.172c-6.398 2.18-8.945 8.563-8.945 8.66v17.3h-3.154V52.1a8.35 8.35 0 0 1 1.319-4.3c1.34-2.307 4.345-5.671 11.013-8.57h.097c12.67 5.506 12.34 12.818 12.34 12.886V69.19h-3.117V51.862c0-.068-2.525-6.436-8.99-8.63l-.045-.173zm1.948-8.369a25 25 0 0 0-1.641-.637l-.15-.06v-.104l-.15.052-.157-.045v.105l-.142.052a23 23 0 0 0-1.649.637v-2.72h3.904zm-1.431 3.874v-3.671a29 29 0 0 1 3.746 1.715l-1.813 2.87a42 42 0 0 0-1.933-.914Zm-1.094 0c-.66.292-1.311.599-1.94.914l-1.806-2.862a28 28 0 0 1 3.746-1.723zm-8.346 5.311-2.128-2.09q1.183-1.216 2.495-2.292l2.248 2.247a22 22 0 0 0-2.615 2.135Zm20.228 2.802a16 16 0 0 0-1.873-2.3l2.105-2.067c.787.846 1.523 1.74 2.203 2.674zm5.072 2.72-3.589.434a11.3 11.3 0 0 0-1.116-2.51l2.473-1.723a25.4 25.4 0 0 1 2.247 3.836zm-3.424 1.139 3.581-.442v3.326h-3.438v-1.37a6 6 0 0 0-.135-1.5zm-26.05 3.596v3.521h-3.438v-3.521zm0 4.233v3.191h-3.438V58.47zm0 3.903v3.267h-3.438v-3.23zm0 3.978v2.84h-3.438v-2.84zm29.632-12.114v3.514h-3.44v-3.514zm0 4.225v3.2h-3.44v-3.2zm0 3.904v3.274h-3.44v-3.274zm0 3.985v2.84h-3.44v-2.84z"/><path fill="#24A7D0" d="M6.986 54.17a1.229 1.229 0 1 0 .06 2.457 1.229 1.229 0 0 0-.06-2.457m.6 1.228a.6.6 0 1 1-.18-.423.6.6 0 0 1 .172.423zM11.144 54.17a1.229 1.229 0 1 0 1.229 1.228 1.236 1.236 0 0 0-1.23-1.228m.6 1.228a.6.6 0 1 1-1.2 0 .6.6 0 0 1 1.2 0M15.302 54.17a1.229 1.229 0 1 0 1.229 1.228 1.236 1.236 0 0 0-1.23-1.228m.6 1.228a.6.6 0 1 1-1.2 0 .6.6 0 0 1 1.2 0M6.986 59.96a1.23 1.23 0 1 0 1.162.746 1.22 1.22 0 0 0-1.162-.745m.6 1.222a.6.6 0 1 1-.6-.6.6.6 0 0 1 .592.6zM11.144 59.96a1.228 1.228 0 1 0 0 2.457 1.228 1.228 0 0 0 0-2.456m.6 1.222a.6.6 0 1 1-.6-.6.606.606 0 0 1 .6.6M15.302 59.96a1.229 1.229 0 1 0 1.135.753 1.22 1.22 0 0 0-1.135-.752m.6 1.222a.6.6 0 1 1-.6-.6.607.607 0 0 1 .6.6M6.986 65.685a1.229 1.229 0 1 0 1.162.745 1.22 1.22 0 0 0-1.162-.745m.6 1.22a.6.6 0 1 1-1.2 0 .6.6 0 0 1 .6-.598.607.607 0 0 1 .592.599zM11.144 65.685a1.228 1.228 0 1 0 1.229 1.22 1.237 1.237 0 0 0-1.23-1.22m.6 1.22a.599.599 0 1 1-1.2 0 .6.6 0 0 1 .6-.598.615.615 0 0 1 .6.599M15.302 65.685a1.229 1.229 0 1 0 1.135.752 1.22 1.22 0 0 0-1.135-.752m.6 1.22a.6.6 0 1 1-1.2 0 .6.6 0 0 1 .6-.598.607.607 0 0 1 .6.599M55.444 54.17a1.229 1.229 0 1 0 1.229 1.228 1.236 1.236 0 0 0-1.23-1.228m.6 1.228a.6.6 0 1 1-1.2 0 .6.6 0 0 1 1.2 0M59.595 54.17a1.229 1.229 0 1 0 0 2.457 1.229 1.229 0 0 0 0-2.457m.599 1.228a.6.6 0 1 1-1.199 0 .6.6 0 0 1 1.199 0M63.753 54.17a1.229 1.229 0 1 0 1.228 1.228 1.236 1.236 0 0 0-1.228-1.228m.599 1.228a.6.6 0 1 1-1.199 0 .6.6 0 0 1 1.199 0M55.444 59.96a1.228 1.228 0 1 0 0 2.457 1.228 1.228 0 0 0 0-2.456m.6 1.222a.6.6 0 1 1-.6-.6.607.607 0 0 1 .6.6M59.595 59.96a1.23 1.23 0 1 0 1.135.753 1.22 1.22 0 0 0-1.136-.752m.599 1.222a.6.6 0 1 1-.6-.6.607.607 0 0 1 .6.6M63.753 59.96a1.23 1.23 0 1 0 1.135.753 1.22 1.22 0 0 0-1.135-.752m.599 1.222a.6.6 0 1 1-.6-.6.607.607 0 0 1 .6.6M55.444 65.685a1.23 1.23 0 1 0 1.221 1.22 1.236 1.236 0 0 0-1.221-1.22m.6 1.22a.6.6 0 1 1-1.2 0 .6.6 0 0 1 .6-.598.614.614 0 0 1 .6.599M59.595 65.685a1.23 1.23 0 1 0 1.135.752 1.22 1.22 0 0 0-1.136-.752m.599 1.22a.599.599 0 1 1-1.199 0 .6.6 0 0 1 .6-.598.614.614 0 0 1 .599.599M63.753 65.685a1.229 1.229 0 1 0 1.135.752 1.22 1.22 0 0 0-1.136-.752m.599 1.22a.6.6 0 1 1-1.199 0 .6.6 0 0 1 .6-.598.607.607 0 0 1 .599.599"/><path stroke="#24A7D0" stroke-width=".6" d="M6.986 54.17a1.229 1.229 0 1 0 .06 2.457 1.229 1.229 0 0 0-.06-2.457Zm.6 1.228a.6.6 0 1 1-.18-.423.6.6 0 0 1 .172.423zM11.144 54.17a1.229 1.229 0 1 0 1.229 1.228 1.236 1.236 0 0 0-1.23-1.228Zm.6 1.228a.6.6 0 1 1-1.2 0 .6.6 0 0 1 1.2 0ZM15.302 54.17a1.229 1.229 0 1 0 1.229 1.228 1.236 1.236 0 0 0-1.23-1.228Zm.6 1.228a.6.6 0 1 1-1.2 0 .6.6 0 0 1 1.2 0ZM6.986 59.96a1.23 1.23 0 1 0 1.162.746 1.22 1.22 0 0 0-1.162-.745Zm.6 1.222a.6.6 0 1 1-.6-.6.6.6 0 0 1 .592.6zM11.144 59.96a1.228 1.228 0 1 0 0 2.457 1.228 1.228 0 0 0 0-2.456Zm.6 1.222a.6.6 0 1 1-.6-.6.606.606 0 0 1 .6.6ZM15.302 59.96a1.229 1.229 0 1 0 1.135.753 1.22 1.22 0 0 0-1.135-.752Zm.6 1.222a.6.6 0 1 1-.6-.6.607.607 0 0 1 .6.6ZM6.986 65.685a1.229 1.229 0 1 0 1.162.745 1.22 1.22 0 0 0-1.162-.745Zm.6 1.22a.6.6 0 1 1-1.2 0 .6.6 0 0 1 .6-.598.607.607 0 0 1 .592.599zM11.144 65.685a1.228 1.228 0 1 0 1.229 1.22 1.237 1.237 0 0 0-1.23-1.22Zm.6 1.22a.599.599 0 1 1-1.2 0 .6.6 0 0 1 .6-.598.615.615 0 0 1 .6.599ZM15.302 65.685a1.229 1.229 0 1 0 1.135.752 1.22 1.22 0 0 0-1.135-.752Zm.6 1.22a.6.6 0 1 1-1.2 0 .6.6 0 0 1 .6-.598.607.607 0 0 1 .6.599ZM55.444 54.17a1.229 1.229 0 1 0 1.229 1.228 1.236 1.236 0 0 0-1.23-1.228Zm.6 1.228a.6.6 0 1 1-1.2 0 .6.6 0 0 1 1.2 0ZM59.595 54.17a1.229 1.229 0 1 0 0 2.457 1.229 1.229 0 0 0 0-2.457Zm.599 1.228a.6.6 0 1 1-1.199 0 .6.6 0 0 1 1.199 0ZM63.753 54.17a1.229 1.229 0 1 0 1.228 1.228 1.236 1.236 0 0 0-1.228-1.228Zm.599 1.228a.6.6 0 1 1-1.199 0 .6.6 0 0 1 1.199 0ZM55.444 59.96a1.228 1.228 0 1 0 0 2.457 1.228 1.228 0 0 0 0-2.456Zm.6 1.222a.6.6 0 1 1-.6-.6.607.607 0 0 1 .6.6ZM59.595 59.96a1.23 1.23 0 1 0 1.135.753 1.22 1.22 0 0 0-1.136-.752Zm.599 1.222a.6.6 0 1 1-.6-.6.607.607 0 0 1 .6.6ZM63.753 59.96a1.23 1.23 0 1 0 1.135.753 1.22 1.22 0 0 0-1.135-.752Zm.599 1.222a.6.6 0 1 1-.6-.6.607.607 0 0 1 .6.6ZM55.444 65.685a1.23 1.23 0 1 0 1.221 1.22 1.236 1.236 0 0 0-1.221-1.22Zm.6 1.22a.6.6 0 1 1-1.2 0 .6.6 0 0 1 .6-.598.614.614 0 0 1 .6.599ZM59.595 65.685a1.23 1.23 0 1 0 1.135.752 1.22 1.22 0 0 0-1.136-.752Zm.599 1.22a.599.599 0 1 1-1.199 0 .6.6 0 0 1 .6-.598.614.614 0 0 1 .599.599ZM63.753 65.685a1.229 1.229 0 1 0 1.135.752 1.22 1.22 0 0 0-1.136-.752Zm.599 1.22a.6.6 0 1 1-1.199 0 .6.6 0 0 1 .6-.598.607.607 0 0 1 .599.599Z"/></svg>