<svg xmlns="http://www.w3.org/2000/svg" width="70" height="71" fill="none"><path fill="#24A7D0" d="M24.98 47.236a2.042 2.042 0 1 0 2.041 2.01 2.05 2.05 0 0 0-2.042-2.01m1.236 2.01a1.237 1.237 0 1 1-2.474 0 1.237 1.237 0 0 1 2.474 0M45.56 47.236a2.042 2.042 0 1 0 2.034 2.01 2.05 2.05 0 0 0-2.034-2.01m1.237 2.01a1.236 1.236 0 1 1-2.473 0 1.236 1.236 0 0 1 2.473 0M61.234 49.245a1.27 1.27 0 1 0 1.173.777 1.26 1.26 0 0 0-1.173-.777m.606 1.27a.63.63 0 0 1-.623.623.622.622 0 0 1 0-1.237.63.63 0 0 1 .623.623zM52.068 49.245a1.27 1.27 0 1 0 1.174.777 1.26 1.26 0 0 0-1.174-.777m.64 1.27a.63.63 0 0 1-.623.623.622.622 0 0 1 0-1.237.63.63 0 0 1 .623.623zM18.105 49.245a1.27 1.27 0 1 0 1.262 1.262 1.26 1.26 0 0 0-1.262-1.262m.615 1.262a.62.62 0 0 1-.615.623.63.63 0 0 1-.622-.623.622.622 0 1 1 1.237 0M8.94 49.245a1.27 1.27 0 1 0 1.262 1.262 1.26 1.26 0 0 0-1.262-1.262m.598 1.27a.62.62 0 0 1-.615.623.63.63 0 0 1-.622-.622.622.622 0 0 1 1.237 0"/><path fill="#48639E" stroke="#48639E" stroke-width=".6" d="M64.496 69.245V45.352h-2.49v-4.624H49.553v-6.426h-1.885v-2.05c0-2.01-1.137-3.678-2.656-3.944V26h-.83v2.308c-1.52.266-2.657 1.934-2.657 3.943v2.05H28.632v-2.05c0-2.009-1.137-3.677-2.657-3.943V26h-.83v2.308c-1.519.266-2.656 1.934-2.656 3.943v2.05h-1.943v6.46H8.093v4.624h-2.49v23.86H3V70h64.124v-.755zM9.33 69.17V57.257a4.35 4.35 0 0 1 4.151-4.533 4.35 4.35 0 0 1 4.151 4.533V69.17zm18.215 0V56.45a7.42 7.42 0 0 1 7.405-7.405h.24a7.414 7.414 0 0 1 7.406 7.405V69.17zm21.21-23.818h-5.628v-3.803h5.629zm3.778 23.818V57.257a4.15 4.15 0 1 1 8.236 0V69.17zm-2.947-27.62h11.623v3.802H49.586zm0 4.632h2.831v2.49h.83v-2.49h2.989v2.49h.83v-2.49h2.989v2.49h.83v-2.49h2.79V69.17h-2.076V57.257a4.983 4.983 0 0 0-8.675-3.91 4.98 4.98 0 0 0-1.213 3.91V69.17h-2.125zm-7.223-13.93c0-1.744 1.005-3.155 2.242-3.155s2.241 1.41 2.241 3.154v2.05h-4.483zm-19.052 0c0-1.744 1.004-3.155 2.241-3.155s2.25 1.41 2.25 3.154v2.05h-4.483zm-1.918 2.88h27.396v5.62H21.393zm20.912 6.45v3.803h-2.988v-3.836zm-3.819 0v3.803h-2.988v-3.836zm-3.818 0v3.803h-2.99v-3.836zm-3.82 0v3.803H27.86v-3.836zm-9.455 0h5.637v3.803h-5.637zm0 4.633h27.396V69.17h-5.355V56.45a8.244 8.244 0 0 0-8.235-8.227h-.24a8.243 8.243 0 0 0-8.236 8.227V69.17h-5.33zM8.94 41.583h11.623v3.802H8.94zm-2.49 4.632h2.74v2.49h.83v-2.49h2.988v2.49h.83v-2.49h2.989v2.49h.83v-2.49h2.88V69.17h-2.141V57.257a5.173 5.173 0 0 0-4.981-5.363 5.18 5.18 0 0 0-4.981 5.363V69.17H6.483z"/></svg>