<svg xmlns="http://www.w3.org/2000/svg" width="70" height="70" fill="none"><g clip-path="url(#a)"><path fill="#24A7D0" d="M30.193 30.074a.52.52 0 1 0-.018 1.04.52.52 0 0 0 .018-1.04ZM38.88 30.074a.52.52 0 1 0 0 1.042.52.52 0 0 0 0-1.042ZM37.768 30.274h-6.465a.338.338 0 0 0-.338.338.347.347 0 0 0 .338.339h6.465a.338.338 0 0 0 .339-.339.33.33 0 0 0-.339-.338Z"/><path fill="#48639E" stroke="#48639E" stroke-width=".6" d="M53.006 69.323v-30.05h1.736v-.677h-3.61v-5.12H47.66v-6.404h-5.12V24H26.488v3.072h-5.12v6.404h-3.471v5.12H14.13v.677h2.09v30.05H10v.668h47.727v-.677l-4.72.01ZM42.194 49.6v19.724H39.59V49.6h2.603Zm-12.6 0v19.724h-2.56V49.6h2.56Zm.677-.338a4.339 4.339 0 1 1 8.678 0v20.062H30.27V49.261Zm11.923-7.15v6.802H39.59a5.007 5.007 0 0 0-9.997 0h-2.603V42.11h15.203ZM16.942 61.703v-7.072h9.459v7.072h-9.459Zm9.459.686v6.942h-9.459V62.39h9.459Zm0-20.957v7.48h-9.459v-9.64h35.396v9.64H42.88v-7.48H26.401Zm25.928 13.208v7.072h-9.458V54.64h9.458Zm0 7.749v6.942h-9.458V62.39h9.458Zm0-12.791v4.339h-9.458v-4.34h9.458ZM41.882 24.677v2.395H27.19v-2.395h14.692ZM22.07 33.476v-5.727H47v5.727h-24.93Zm-3.472 5.12v-4.443h31.856v4.443H18.6Zm-1.657 15.36v-4.34h9.415v4.34h-9.415Z"/><path fill="#24A7D0" d="M47.522 42.37a1.736 1.736 0 1 0 0 3.472 1.736 1.736 0 0 0 0-3.471Zm1.041 1.736a1.04 1.04 0 1 1-2.08 0 1.04 1.04 0 0 1 2.08 0ZM21.628 42.37a1.735 1.735 0 1 0 0 3.471 1.735 1.735 0 0 0 0-3.47Zm1.041 1.736a1.042 1.042 0 1 1-.305-.71c.195.195.305.46.305.736v-.026Z"/></g><defs><clipPath id="a"><path fill="#fff" d="M10 24h47.718v46H10z"/></clipPath></defs></svg>